<?xml version="1.0" encoding="UTF-8"?>
<svg width="634px" height="200px" viewBox="0 0 634 200" version="1.1" xmlns="http://www.w3.org/2000/svg" xmlns:xlink="http://www.w3.org/1999/xlink">
    <!-- Generator: Sketch 54 (76480) - https://sketchapp.com -->
    <title>fullLogo</title>
    <desc>Created with Sketch.</desc>
    <g id="Page-1" stroke="none" stroke-width="1" fill="none" fill-rule="evenodd">
        <g id="fullLogo" fill-rule="nonzero">
            <path d="M0,50.14 L0,104.72 L86.46,54.58 C86.51,54.58 133.52,81.89 133.52,81.89 L39.59,136.32 L55.28,145.42 L164.94,81.84 L86.51,36.32 L15.73,77.4 L15.73,59.24 L86.51,18.24 L173.06,68.38 L173.06,50.19 L86.46,0 L0,50.14" id="Path" fill="#F7D900"></path>
            <path d="M173.06,95.33 L55.28,163.63 C55.23,163.63 15.73,140.76 15.73,140.76 L15.73,132.12 L102.19,81.79 L86.51,72.74 L0,123 L0,149.75 L55.23,181.75 L157.33,122.56 L157.33,140.76 L70.92,190.9 L86.6,200 L173.06,149.86 L173.06,95.33 Z" id="Path" fill="#000000"></path>
            <path d="M222.15,62.1 C221.250095,60.7866128 219.97435,59.7757767 218.49,59.2 C216.958564,58.5824123 215.321244,58.2698948 213.67,58.28 C212.693125,58.2753638 211.719311,58.3895351 210.77,58.62 C209.869272,58.8321568 209.012888,59.2011128 208.24,59.71 C206.631762,60.7645197 205.685457,62.5776405 205.74,64.5 C205.656812,65.9583116 206.296214,67.3642485 207.45,68.26 C208.749805,69.2067593 210.177364,69.9643088 211.69,70.51 C213.38,71.15 215.22,71.76 217.23,72.36 C219.17909,72.9265873 221.042634,73.7540815 222.77,74.82 C224.46743,75.8888508 225.911042,77.3153992 227,79 C228.232834,81.0831489 228.827389,83.4822306 228.71,85.9 C228.763335,88.2465428 228.273949,90.573695 227.28,92.7 C226.370762,94.5784394 225.047621,96.2263827 223.41,97.52 C221.733739,98.8331021 219.818215,99.8078459 217.77,100.39 C215.577584,101.051628 213.300074,101.388538 211.01,101.39 C208.05137,101.39955 205.113838,100.891912 202.33,99.89 C199.527568,98.8751213 197.048264,97.1278677 195.15,94.83 L201.64,88.54 C202.6749,90.1198452 204.101169,91.4048655 205.78,92.27 C207.455793,93.1459765 209.319071,93.6023597 211.21,93.6 C212.223659,93.5955707 213.232324,93.4577198 214.21,93.19 C215.20222,92.9146042 216.144084,92.4824946 217,91.91 C217.814753,91.3718797 218.49824,90.6576356 219,89.82 C219.510111,88.9399508 219.769491,87.9370153 219.75,86.92 C219.85174,85.3612517 219.219153,83.8445221 218.04,82.82 C216.767784,81.7854443 215.33575,80.9647266 213.8,80.39 C212.11,79.73 210.27,79.1 208.26,78.51 C206.317857,77.9466262 204.458493,77.129582 202.73,76.08 C201.029081,75.0460022 199.580504,73.6452557 198.49,71.98 C197.254603,69.9088977 196.659629,67.5185643 196.78,65.11 C196.720156,62.849549 197.250962,60.6125807 198.32,58.62 C199.307906,56.8314227 200.672739,55.2789252 202.32,54.07 C204.047268,52.8369914 205.981005,51.9226152 208.03,51.37 C210.166554,50.7789977 212.373213,50.4796186 214.59,50.48 C217.10632,50.475826 219.607382,50.8707305 222,51.65 C224.407317,52.4344007 226.612718,53.7385233 228.46,55.47 L222.15,62.1 Z" id="Path" fill="#000000"></path>
            <polygon id="Path" fill="#000000" points="258.38 51.71 271.5 51.71 284.42 85.62 297.48 51.71 310.48 51.71 310.48 100.11 302.28 100.11 302.28 59.92 302.15 59.92 287.45 100.11 281.45 100.11 266.75 59.92 266.62 59.92 266.62 100.11 258.42 100.11"></polygon>
            <path d="M357.63,51.71 L365.08,51.71 L385.93,100.11 L376.09,100.11 L371.57,89 L350.57,89 L346.19,100.07 L336.56,100.07 L357.63,51.71 Z M368.56,81.65 L361.12,62 L353.53,81.68 L368.56,81.65 Z" id="Shape" fill="#000000"></path>
            <path d="M411.83,51.7099306 L428.65,51.71 C430.90922,51.7054665 433.163407,51.9231814 435.38,52.36 C437.421568,52.7510632 439.376068,53.5064418 441.15,54.59 C442.820388,55.6380797 444.196846,57.0936847 445.15,58.82 C446.221851,60.9108521 446.738372,63.2420822 446.65,65.59 C446.754775,68.7801497 445.727495,71.904497 443.75,74.41 C441.645785,76.8709679 438.664329,78.413719 435.44,78.71 L448.29,100.11 L437.94,100.11 L426.73,79.6 L420.44,79.6 L420.44,100.11 L411.83,100.11 L411.83,51.7099306 Z M427.14,72.22 C428.37,72.22 429.6,72.16 430.84,72.05 C432.002002,71.951312 433.141956,71.6747551 434.22,71.23 C435.221646,70.8108952 436.084711,70.1176701 436.71,69.23 C437.426199,68.1222801 437.776024,66.8174313 437.71,65.5 C437.763394,64.2965033 437.453273,63.1048024 436.82,62.08 C436.243945,61.2285216 435.439994,60.5562522 434.5,60.14 C433.491074,59.689984 432.418219,59.3998406 431.32,59.28 C430.194597,59.1503667 429.062839,59.0835964 427.93,59.08 L420.48,59.08 L420.48,72.22 L427.14,72.22 Z" id="Shape" fill="#000000"></path>
            <polygon id="Path" fill="#000000" points="484.09 59.51 469.25 59.51 469.25 51.71 507.54 51.71 507.54 59.51 492.7 59.51 492.7 100.11 484.09 100.11"></polygon>
            <polygon id="Path" fill="#000000" points="533.92 51.71 566 51.71 566 59.51 542.53 59.51 542.53 71.4 564.74 71.4 564.74 79.19 542.53 79.19 542.53 92.32 567.21 92.32 567.21 100.11 533.92 100.11"></polygon>
            <path d="M596.19,51.7099303 L613,51.71 C615.26253,51.7054568 617.520036,51.9231688 619.74,52.36 C621.781568,52.7510632 623.736068,53.5064418 625.51,54.59 C627.177885,55.6411285 628.553663,57.0960133 629.51,58.82 C630.581851,60.9108521 631.098372,63.2420822 631.01,65.59 C631.114775,68.7801497 630.087495,71.904497 628.11,74.41 C626.005785,76.8709679 623.024329,78.413719 619.8,78.71 L632.65,100.11 L622.3,100.11 L611.09,79.6 L604.8,79.6 L604.8,100.11 L596.19,100.11 L596.19,51.7099303 Z M611.5,72.22 C612.73,72.22 613.96,72.16 615.19,72.05 C616.352388,71.953693 617.492703,71.6770484 618.57,71.23 C619.576152,70.8139308 620.443216,70.1202791 621.07,69.23 C621.786199,68.1222801 622.136024,66.8174313 622.07,65.5 C622.123394,64.2965033 621.813273,63.1048024 621.18,62.08 C620.601553,61.2306853 619.798288,60.5589892 618.86,60.14 C617.851074,59.689984 616.778219,59.3998406 615.68,59.28 C614.554571,59.1506549 613.42283,59.0838855 612.29,59.08 L604.8,59.08 L604.8,72.22 L611.5,72.22 Z" id="Shape" fill="#000000"></path>
            <path d="M211.34,150.81 C204.288658,150.826531 198.558496,145.124676 198.540106,138.073338 C198.521717,131.022 204.222061,125.290336 211.273394,125.270088 C218.324726,125.24984 224.057893,130.948673 224.08,138 C224.168139,141.41147 222.856552,144.71044 220.450094,147.13012 C218.043636,149.549801 214.751901,150.879445 211.34,150.81 Z M211.34,147.26 C216.29,147.26 219.88,143.66 219.88,138.03 C219.88,132.4 216.29,128.88 211.34,128.88 C206.39,128.88 202.8,132.39 202.8,138.03 C202.8,143.67 206.38,147.26 211.34,147.26 Z" id="Shape" fill="#000000"></path>
            <polygon id="Path" fill="#000000" points="246.09 125.61 260.77 125.61 260.77 129 250.18 129 250.18 136.35 258.44 136.35 258.44 139.7 250.18 139.7 250.18 150.61 246.09 150.61"></polygon>
            <polygon id="Path" fill="#000000" points="282.56 125.61 297.24 125.61 297.24 129 286.65 129 286.65 136.35 294.91 136.35 294.91 139.7 286.65 139.7 286.65 150.61 282.56 150.61"></polygon>
            <polygon id="Path" fill="#000000" points="319 125.61 323.09 125.61 323.09 150.61 319 150.61"></polygon>
            <path d="M357.86,125.28 C363.06,125.28 367.55,127.91 369.45,132.79 L364.53,132.79 C363.293393,130.265669 360.666723,128.725897 357.86,128.88 C352.86,128.88 349.31,132.39 349.31,138.03 C349.31,143.67 352.9,147.22 357.86,147.22 C360.666723,147.374103 363.293393,145.834331 364.53,143.31 L369.45,143.31 C367.55,148.19 363.06,150.77 357.86,150.77 C353.221527,150.899941 348.878694,148.499578 346.521134,144.502802 C344.163574,140.506025 344.163574,135.543975 346.521134,131.547198 C348.878694,127.550422 353.221527,125.150059 357.86,125.28 L357.86,125.28 Z" id="Path" fill="#000000"></path>
            <polygon id="Path" fill="#000000" points="406 128.91 396.3 128.91 396.3 136.24 404.92 136.24 404.92 139.57 396.3 139.57 396.3 147.22 406 147.22 406 150.56 392.21 150.56 392.21 125.56 406 125.56"></polygon>
            <path d="M464.53,150.81 C459.53,150.81 455.7,148.08 455.7,143.66 L460.08,143.66 C460.26,145.71 461.7,147.36 464.53,147.36 C467.36,147.36 469.02,145.82 469.02,143.7 C469.02,137.7 455.77,141.58 455.77,132.39 C455.77,128.01 459.25,125.28 464.35,125.28 C469.12,125.28 472.5,127.8 472.86,132.07 L468.34,132.07 C468.19,130.38 466.72,128.84 464.13,128.77 C461.77,128.69 459.93,129.84 459.93,132.25 C459.93,137.88 473.15,134.37 473.15,143.49 C473.15,147.22 470.09,150.81 464.53,150.81 Z" id="Path" fill="#000000"></path>
            <path d="M504.59,140.43 L500.06,140.43 L500.06,150.56 L496,150.56 L496,125.56 L504.62,125.56 C510.54,125.56 513.45,128.93 513.45,132.99 C513.42,136.59 511.08,140.43 504.59,140.43 Z M504.59,137.1 C507.78,137.1 509.22,135.55 509.22,133.04 C509.22,130.53 507.78,128.95 504.59,128.95 L500.06,128.95 L500.06,137.1 L504.59,137.1 Z" id="Shape" fill="#000000"></path>
            <path d="M547.48,145.46 L537,145.46 L535.2,150.56 L531,150.56 L539.94,125.56 L544.68,125.56 L553.61,150.56 L549.31,150.56 L547.48,145.46 Z M542.28,130.52 L538.19,142.12 L546.34,142.12 L542.28,130.52 Z" id="Shape" fill="#000000"></path>
            <path d="M585.39,125.28 C590.59,125.28 595.08,127.91 596.98,132.79 L592.07,132.79 C590.831955,130.262182 588.200264,128.721776 585.39,128.88 C580.39,128.88 576.85,132.39 576.85,138.03 C576.85,143.67 580.43,147.22 585.39,147.22 C588.200264,147.378224 590.831955,145.837818 592.07,143.31 L597,143.31 C595.1,148.19 590.61,150.77 585.41,150.77 C578.510125,150.576708 573.017036,144.927582 573.017036,138.025 C573.017036,131.122418 578.510125,125.473292 585.41,125.28 L585.39,125.28 Z" id="Path" fill="#000000"></path>
            <polygon id="Path" fill="#000000" points="633.53 128.91 623.84 128.91 623.84 136.24 632.46 136.24 632.46 139.57 623.84 139.57 623.84 147.22 633.53 147.22 633.53 150.56 619.75 150.56 619.75 125.56 633.53 125.56"></polygon>
        </g>
    </g>
</svg>