<?xml version="1.0" encoding="UTF-8"?>
<svg width="86px" height="96px" viewBox="0 0 86 96" version="1.1" xmlns="http://www.w3.org/2000/svg" xmlns:xlink="http://www.w3.org/1999/xlink">
    <!-- Generator: Sketch 54 (76480) - https://sketchapp.com -->
    <title>Shape</title>
    <desc>Created with Sketch.</desc>
    <g id="Page-1" stroke="none" stroke-width="1" fill="none" fill-rule="evenodd">
        <path d="M79.1,26.3 C78.6,25.8 77.8,26.2 77.8,26.9 C77.9,32.6 72.9,37.2 72.9,37.2 C73.6,26 67.5,7.4 56.8,0.7 C56.2,0.3 55.5,0.9 55.7,1.6 C59.1,12 40.5,21.9 36.1,37.7 C34.1,37.3 32.1,37 29.9,37 C13.8,37 0.7,50.1 0.7,66.2 C0.7,82.3 13.8,95.5 30,95.5 C46.1,95.5 59.3,82.4 59.3,66.2 C59.3,59.3 56.9,52.9 52.8,47.9 C55.7,43.5 58.7,39.8 58.1,36.1 C58,35.5 58.7,35.1 59.2,35.5 C64.2,40 67.1,50.8 66.7,57.4 C66.7,57.4 68.9,55 69.2,51.8 C69.3,51.2 70.1,51 70.4,51.5 C73,55.5 73,60.2 73,61.8 C73,64.5 72.4,67.1 71.5,69.6 C71.1,70.6 72.4,71.3 73.1,70.5 C79.3,63.7 85.3,54.5 85.3,44.2 C85.3,41.5 85.3,32.9 79.1,26.3 Z M30,88.9 C17.5,88.9 7.4,78.8 7.4,66.3 C7.4,53.8 17.5,43.7 30,43.7 C42.5,43.7 52.6,53.8 52.6,66.3 C52.6,78.7 42.4,88.9 30,88.9 Z M40.4,62.9 L33.3,62.9 L33.3,53.1 C33.3,51.3 31.8,49.8 30,49.8 C28.2,49.8 26.7,51.3 26.7,53.1 L26.7,66.2 C26.7,68 28.2,69.5 30,69.5 L40.5,69.5 C42.3,69.5 43.8,68 43.8,66.2 C43.8,64.4 42.3,62.9 40.4,62.9 Z" id="Shape" fill="#000000" fill-rule="nonzero"></path>
    </g>
</svg>