<svg width="28" height="23" viewBox="0 0 28 23" fill="none" xmlns="http://www.w3.org/2000/svg">
<path fill-rule="evenodd" clip-rule="evenodd" d="M1 0.25C0.447715 0.25 0 0.697715 0 1.25C0 1.80228 0.447715 2.25 1 2.25H13.25V5V18.5C13.25 19.0523 13.6977 19.5 14.25 19.5H15.626C16.0701 21.2252 17.6362 22.5 19.5 22.5C21.3638 22.5 22.9299 21.2252 23.374 19.5H26.25C26.8023 19.5 27.25 19.0523 27.25 18.5V12.5C27.25 12.1212 27.036 11.775 26.6972 11.6056L24.0484 10.2812L21.9363 4.64888C21.79 4.25857 21.4168 4 21 4H15.25V1.25C15.25 0.697715 14.8023 0.25 14.25 0.25H1ZM3.25 5C3.25 4.44772 3.69772 4 4.25 4H10.25C10.8023 4 11.25 4.44772 11.25 5C11.25 5.55228 10.8023 6 10.25 6H4.25C3.69772 6 3.25 5.55228 3.25 5ZM25.25 17.5H23.374C22.9299 15.7748 21.3638 14.5 19.5 14.5C17.6362 14.5 16.0701 15.7748 15.626 17.5H15.25V6H20.307L22.3137 11.3511C22.4023 11.5875 22.577 11.7815 22.8028 11.8944L25.25 13.118V17.5ZM19.5 16.5C18.3954 16.5 17.5 17.3954 17.5 18.5C17.5 19.6046 18.3954 20.5 19.5 20.5C20.6046 20.5 21.5 19.6046 21.5 18.5C21.5 17.3954 20.6046 16.5 19.5 16.5ZM18.25 8C18.25 7.44772 17.8023 7 17.25 7C16.6977 7 16.25 7.44772 16.25 8V11C16.25 11.5523 16.6977 12 17.25 12H20.25C20.8023 12 21.25 11.5523 21.25 11C21.25 10.4477 20.8023 10 20.25 10H18.25V8ZM4.75 8.75C4.75 8.19772 5.19772 7.75 5.75 7.75H10.25C10.8023 7.75 11.25 8.19772 11.25 8.75C11.25 9.30229 10.8023 9.75 10.25 9.75H5.75C5.19772 9.75 4.75 9.30229 4.75 8.75ZM7.25 11.5C6.69772 11.5 6.25 11.9477 6.25 12.5C6.25 13.0523 6.69772 13.5 7.25 13.5H10.25C10.8023 13.5 11.25 13.0523 11.25 12.5C11.25 11.9477 10.8023 11.5 10.25 11.5H7.25Z" fill="#F2994A"/>
</svg>
