<svg xmlns="http://www.w3.org/2000/svg" width="20" height="20" viewBox="0 0 20 20">
    <g fill="none" fill-rule="nonzero">
        <path fill="#141103" d="M19.089 7.47a.714.714 0 0 0 .187-.926l-1.645-2.85a.714.714 0 0 0-.896-.3l-2.178.918a7.284 7.284 0 0 0-1.91-1.109l-.293-2.34a.714.714 0 0 0-.709-.625h-3.29a.714.714 0 0 0-.709.626l-.292 2.34c-.69.27-1.334.644-1.911 1.108l-2.178-.919a.714.714 0 0 0-.896.301L.724 6.544c-.18.312-.1.709.187.926l1.88 1.424a7.212 7.212 0 0 0 0 2.212L.911 12.53a.714.714 0 0 0-.187.926l1.645 2.85c.18.312.564.44.896.3l2.178-.918a7.284 7.284 0 0 0 1.91 1.109l.293 2.34a.714.714 0 0 0 .709.625h3.29c.36 0 .664-.268.709-.626l.292-2.34a7.284 7.284 0 0 0 1.911-1.108l2.178.919c.332.14.716.01.896-.301l1.645-2.85c.18-.312.1-.709-.187-.926l-1.88-1.424c.056-.365.085-.735.085-1.105 0-.372-.03-.742-.086-1.107l1.88-1.424zm-3.361 3.785a.714.714 0 0 0 .266.723l1.73 1.31-1.015 1.757-2.004-.845a.714.714 0 0 0-.76.131 5.855 5.855 0 0 1-2.17 1.26.714.714 0 0 0-.492.592l-.269 2.15H8.986l-.27-2.15a.714.714 0 0 0-.49-.592 5.855 5.855 0 0 1-2.17-1.26.714.714 0 0 0-.761-.131l-2.004.845-1.015-1.757 1.73-1.31a.714.714 0 0 0 .266-.724 5.784 5.784 0 0 1 0-2.508.714.714 0 0 0-.266-.724l-1.73-1.31 1.015-1.757 2.004.845a.714.714 0 0 0 .76-.131 5.855 5.855 0 0 1 2.17-1.26.714.714 0 0 0 .492-.592l.269-2.15h2.028l.27 2.15a.714.714 0 0 0 .49.592 5.855 5.855 0 0 1 2.17 1.26c.207.189.504.24.761.131l2.004-.845 1.015 1.757-1.73 1.31a.714.714 0 0 0-.266.723c.09.412.137.833.138 1.255a5.906 5.906 0 0 1-.138 1.255z"/>
        <path fill="#F8D822" d="M10 13.182a3.182 3.182 0 1 0 0-6.364 3.182 3.182 0 0 0 0 6.364z"/>
    </g>
</svg>
