<svg xmlns="http://www.w3.org/2000/svg" width="20" height="20" viewBox="0 0 20 20">
    <g fill="none" fill-rule="nonzero">
        <path fill="#141103" d="M15.833 2.5V.833a.833.833 0 1 0-1.666 0V2.5h1.666zM5.833 2.5V.833a.833.833 0 1 0-1.666 0V2.5h1.666zM17.5 19.167h-15a2.5 2.5 0 0 1-2.5-2.5V5.833a2.5 2.5 0 0 1 2.5-2.5h15a2.5 2.5 0 0 1 2.5 2.5v10.834a2.5 2.5 0 0 1-2.5 2.5zM18.333 7.5H1.667v9.167c0 .46.373.833.833.833h15c.46 0 .833-.373.833-.833V7.5z"/>
        <rect width="3.333" height="2.5" x="3.333" y="9.167" fill="#F8D822" rx=".5"/>
        <rect width="3.333" height="2.5" x="8.333" y="9.167" fill="#F8D822" rx=".5"/>
        <rect width="3.333" height="2.5" x="3.333" y="13.333" fill="#F8D822" rx=".5"/>
        <rect width="3.333" height="2.5" x="8.333" y="13.333" fill="#F8D822" rx=".5"/>
        <rect width="3.333" height="2.5" x="13.333" y="9.167" fill="#F8D822" rx=".5"/>
    </g>
</svg>
