<svg xmlns="http://www.w3.org/2000/svg" width="20" height="20" viewBox="0 0 20 20">
    <g fill="none" fill-rule="nonzero">
        <path fill="#1F1D0D" d="M4.194 6.129a1.935 1.935 0 1 1 0-3.87 1.935 1.935 0 0 1 0 3.87zm0-6.129a4.198 4.198 0 0 1 4.193 4.194 4.198 4.198 0 0 1-4.193 4.193A4.198 4.198 0 0 1 0 4.194 4.198 4.198 0 0 1 4.194 0zm0 6.774a2.584 2.584 0 0 0 2.58-2.58 2.584 2.584 0 0 0-2.58-2.581 2.584 2.584 0 0 0-2.581 2.58 2.584 2.584 0 0 0 2.58 2.581z"/>
        <path fill="#F8D822" d="M15.806 17.742a1.935 1.935 0 1 1 0-3.871 1.935 1.935 0 0 1 0 3.87zm0-6.13A4.198 4.198 0 0 1 20 15.807 4.198 4.198 0 0 1 15.806 20a4.198 4.198 0 0 1-4.193-4.194 4.198 4.198 0 0 1 4.193-4.193zm0 6.775a2.584 2.584 0 0 0 2.581-2.58 2.584 2.584 0 0 0-2.58-2.581 2.584 2.584 0 0 0-2.581 2.58 2.584 2.584 0 0 0 2.58 2.581z"/>
        <path fill="#141101" d="M14.17 2.557l-1.86 1.86h2.851a3.007 3.007 0 0 1 3.004 3.002v1.936a.423.423 0 0 1-.846 0V7.419a2.16 2.16 0 0 0-2.158-2.158h-2.85l1.859 1.86a.422.422 0 1 1-.598.597l-2.58-2.58a.422.422 0 0 1 0-.598l2.58-2.58a.422.422 0 1 1 .598.597z"/>
        <path fill="#F8D822" d="M4.839 14.739h2.85l-1.859-1.86a.422.422 0 1 1 .598-.597l2.58 2.58a.422.422 0 0 1 0 .598l-2.58 2.58a.422.422 0 1 1-.598-.597l1.86-1.86H4.839a3.007 3.007 0 0 1-3.004-3.002v-1.936a.423.423 0 0 1 .846 0v1.936a2.16 2.16 0 0 0 2.158 2.158z"/>
    </g>
</svg>
