<svg width="20" height="20" viewBox="0 0 20 20" fill="none" xmlns="http://www.w3.org/2000/svg">
<path fill-rule="evenodd" clip-rule="evenodd" d="M2.89727 0.369091L3.18182 0H16.8182L17.1018 0.369091L20 4.23273V19C20 19.5523 19.5523 20 19 20H1C0.447715 20 0 19.5523 0 19V4.23273L2.89727 0.369091ZM9.09091 1.81818H4.09091L2.72727 3.63636H9.09091V1.81818ZM15.9091 1.81818H10.9091V3.63636H17.2727L15.9091 1.81818ZM18.1818 5.45455H1.81818V17.1818C1.81818 17.7341 2.2659 18.1818 2.81818 18.1818H17.1818C17.7341 18.1818 18.1818 17.7341 18.1818 17.1818V5.45455ZM14.3266 9.68251C14.6534 9.30131 14.6092 8.7274 14.228 8.40065C13.8468 8.07389 13.2729 8.11803 12.9462 8.49923L9.34265 12.7032L7.91559 11.2762C7.56057 10.9211 6.98497 10.9211 6.62994 11.2762C6.27492 11.6312 6.27492 12.2068 6.62994 12.5618L8.75116 14.683C8.93021 14.8621 9.17583 14.9583 9.42886 14.9486C9.68189 14.9389 9.91941 14.8241 10.0842 14.6318L14.3266 9.68251Z" fill="#BB6BD9"/>
</svg>
