<svg xmlns="http://www.w3.org/2000/svg" width="20" height="17" viewBox="0 0 20 17">
    <g fill="none" fill-rule="evenodd">
        <path fill="#F8D822" fill-rule="nonzero" d="M6.625 8.5a4.25 4.25 0 1 0 0-8.5 4.25 4.25 0 0 0 0 8.5zM15 7.438a3.125 3.125 0 1 0 0-6.25 3.125 3.125 0 0 0 0 6.25z"/>
        <path fill="#141103" fill-rule="nonzero" d="M12.625 16.938H.75a.75.75 0 0 1-.75-.75 6.687 6.687 0 1 1 13.375 0 .75.75 0 0 1-.75.75z"/>
        <path fill="#141103" d="M14.935 14.506h4.326c.43 0 .645-.284.645-.853 0-.853-.69-4.647-4.75-4.647-1.847 0-2.752.636-2.753 1.362 0 .226.225.539.678.94.347.381.656.854.926 1.419.21.437.354.892.435 1.363a.5.5 0 0 0 .493.416z"/>
    </g>
</svg>
