<svg xmlns="http://www.w3.org/2000/svg" width="20" height="20" viewBox="0 0 20 20">
    <g fill="none" fill-rule="evenodd">
        <path fill="#141103" d="M13.769 2V.724a.725.725 0 0 0-1.45 0v1.45h1.45V2zM5.073 2V.724a.724.724 0 0 0-1.45 0v1.45h1.45V2zM2.175 15.217a.724.724 0 0 1-.725-.724V6.522h14.492v.9c.158.04.316.07.474.123.302.1.566.207.807.325.06.03.11.07.169.1V5.073c0-1.2-.973-2.174-2.174-2.174H2.175A2.174 2.174 0 0 0 0 5.072v9.42c0 1.2.973 2.175 2.175 2.175h5.64a6.08 6.08 0 0 1-.371-1.16c-.02-.097-.028-.193-.043-.29H2.175z"/>
        <path fill="#141103" d="M5.363 7.97h-2.03a.434.434 0 0 0-.433.436V9.71c0 .24.194.435.434.435h2.029c.24 0 .435-.195.435-.435V8.406a.435.435 0 0 0-.435-.435M7.682 7.97a.435.435 0 0 0-.435.436V9.71c0 .24.195.435.435.435h1.014c.564-.861 1.45-1.255 1.45-1.255v-.484a.435.435 0 0 0-.435-.435H7.68zM5.363 11.594h-2.03a.434.434 0 0 0-.433.435v1.304c0 .24.194.435.434.435h2.029c.24 0 .435-.195.435-.435v-1.304a.435.435 0 0 0-.435-.435M7.247 13.333c0 .24 0 .435.086.434h.158l.004-.036.013-.104a6.528 6.528 0 0 1 .528-2.034h-.354a.436.436 0 0 0-.435.435v1.305z"/>
        <path fill="#F8D822" d="M17.522 15.506h-3.357c-.371 0-.672-.3-.672-.67v-3.358a.673.673 0 0 1 1.343 0v2.686h2.686a.672.672 0 1 1 0 1.342m.939-4.805a5.515 5.515 0 0 0-1.562-1.128 5.218 5.218 0 0 0-.677-.27 5.442 5.442 0 0 0-1.576-.289c-.05 0-.096-.014-.146-.014a5.508 5.508 0 0 0-5.449 4.988c-.015.17-.051.336-.051.511 0 .364.04.72.108 1.065.112.565.327 1.088.598 1.576.066.121.122.248.197.364a5.495 5.495 0 0 0 4.597 2.495c3.033 0 5.5-2.467 5.5-5.5 0-1.474-.59-2.809-1.54-3.798"/>
    </g>
</svg>
