<svg xmlns="http://www.w3.org/2000/svg" width="19" height="20" viewBox="0 0 19 20">
    <g fill="none" fill-rule="evenodd">
        <path fill="#F8D822" d="M16.133 13.338l-1.798 2.394-.644.86-.041.053c-.178.24-.443.382-.73.452-.07.017-.135.056-.21.061h-.095c-.34 0-.663-.137-.902-.38l-1.281-1.28a.645.645 0 0 1 .001-.91.645.645 0 0 1 .91.004l.24.24.048.049.823.822c.04.04.094.063.151.063l.48-.615 2.022-2.587a.643.643 0 0 1 .898-.128v.004a.634.634 0 0 1 .248.422.635.635 0 0 1-.12.476M13.335 8.89c-1.463 0-2.774.58-3.759 1.508a5.583 5.583 0 0 0-.622.683 5.631 5.631 0 0 0-.506.776 5.484 5.484 0 0 0-.668 2.588A5.556 5.556 0 0 0 13.335 20c.165 0 .32-.035.481-.05.312-.025.615-.09.91-.166.303-.078.594-.185.875-.311 1.934-.863 3.289-2.774 3.289-5.028a5.56 5.56 0 0 0-5.555-5.555"/>
        <path fill="#131200" d="M4.417 5.667a2.834 2.834 0 1 1 .001-5.668 2.834 2.834 0 0 1 0 5.668zM10 4.959a2.083 2.083 0 1 1 0-4.167 2.083 2.083 0 0 1 0 4.167zM8.422 8.791a7.545 7.545 0 0 0-1.884 2.5H.5A.5.5 0 0 1 0 10.794a4.459 4.459 0 0 1 4.459-4.46c1.739 0 3.228 1.005 3.963 2.458zm1.683-2.787c1.128 0 1.85.446 2.327 1a7.457 7.457 0 0 0-3.25 1.199 3.654 3.654 0 0 0-.46-.663c-.303-.268-.453-.477-.453-.628.001-.483.604-.908 1.836-.908z"/>
    </g>
</svg>
