<svg width="20" height="20" viewBox="0 0 20 20" fill="none" xmlns="http://www.w3.org/2000/svg">
<path fill-rule="evenodd" clip-rule="evenodd" d="M19.3343 0.0146069C19.5067 0.0474933 19.6694 0.135595 19.7935 0.275702C19.8127 0.297333 19.8306 0.31987 19.8473 0.343202C19.9498 0.486772 20.0038 0.660415 19.9998 0.837976C19.9992 0.863538 19.9974 0.889182 19.9944 0.914829C19.9921 0.935327 19.9889 0.955737 19.985 0.97601L16.7076 18.6738C16.6561 18.9517 16.4652 19.1834 16.2023 19.2871C15.9394 19.3908 15.6417 19.3517 15.4144 19.1837L6.88523 12.8795V16.1299L8.00292 15.2077C8.35211 14.9196 8.86873 14.9691 9.15683 15.3183C9.44492 15.6675 9.39541 16.1841 9.04622 16.4722L6.58721 18.5011C6.34245 18.703 6.00311 18.7455 5.71608 18.6103C5.42905 18.475 5.24589 18.1861 5.24589 17.8688V11.6679L0.332484 8.03621C0.0890034 7.85624 -0.0354422 7.55672 0.0088277 7.2572C0.0530976 6.95768 0.258872 6.70696 0.544004 6.60513L18.8876 0.0538506C18.982 0.0177313 19.0812 -2.81589e-05 19.18 3.35122e-08C19.2319 -1.10659e-05 19.2836 0.00490091 19.3343 0.0146069ZM14.8447 3.23848L2.54339 7.63182L6.08288 10.248L14.8447 3.23848ZM7.44688 11.2561L15.3344 17.0861L17.9735 2.83482L7.44688 11.2561Z" fill="#88B041"/>
</svg>
