<svg xmlns="http://www.w3.org/2000/svg" xmlns:xlink="http://www.w3.org/1999/xlink" width="20" height="20" viewBox="0 0 20 20">
    <defs>
        <path id="a" d="M0 0h20v20H0z"/>
    </defs>
    <g fill="none" fill-rule="evenodd">
        <mask id="b" fill="#fff">
            <use xlink:href="#a"/>
        </mask>
        <g mask="url(#b)">
            <path fill="#F8D822" d="M8.333 11.667H1.667a.834.834 0 0 1-.834-.834v-10c0-.46.374-.833.834-.833h6.666c.46 0 .834.373.834.833v10c0 .46-.374.834-.834.834z"/>
            <path fill="#141103" d="M8.333 20H1.667a.834.834 0 0 1-.834-.833v-5c0-.46.374-.834.834-.834h6.666c.46 0 .834.374.834.834v5c0 .46-.374.833-.834.833zM18.333 6.667h-6.666a.834.834 0 0 1-.834-.834v-5c0-.46.374-.833.834-.833h6.666c.46 0 .834.373.834.833v5c0 .46-.374.834-.834.834z"/>
            <path fill="#F8D822" d="M18.333 20h-6.666a.834.834 0 0 1-.834-.833v-10c0-.46.374-.834.834-.834h6.666c.46 0 .834.374.834.834v10c0 .46-.374.833-.834.833z"/>
        </g>
    </g>
</svg>
